<?xml version="1.0" encoding="UTF-8" standalone="no"?>
<!-- Created with Inkscape (http://www.inkscape.org/) -->

<svg
   width="512"
   height="512"
   viewBox="0 0 512 512"
   version="1.1"
   id="svg5"
   inkscape:version="1.1 (c68e22c387, 2021-05-23)"
   sodipodi:docname="studio.svg"
   inkscape:export-filename="D:\.Project\season-studio.github.io\logo\studio\studio.png"
   inkscape:export-xdpi="96"
   inkscape:export-ydpi="96"
   xmlns:inkscape="http://www.inkscape.org/namespaces/inkscape"
   xmlns:sodipodi="http://sodipodi.sourceforge.net/DTD/sodipodi-0.dtd"
   xmlns="http://www.w3.org/2000/svg"
   xmlns:svg="http://www.w3.org/2000/svg">
  <sodipodi:namedview
     id="namedview7"
     pagecolor="#ffffff"
     bordercolor="#666666"
     borderopacity="1.0"
     inkscape:pageshadow="2"
     inkscape:pageopacity="0.0"
     inkscape:pagecheckerboard="0"
     inkscape:document-units="px"
     showgrid="false"
     units="mm"
     inkscape:zoom="0.17861602"
     inkscape:cx="-456.28606"
     inkscape:cy="-685.82874"
     inkscape:window-width="1920"
     inkscape:window-height="991"
     inkscape:window-x="-9"
     inkscape:window-y="-9"
     inkscape:window-maximized="1"
     inkscape:current-layer="layer2" />
  <defs
     id="defs2">
    <pattern
       id="EMFhbasepattern"
       patternUnits="userSpaceOnUse"
       width="6"
       height="6"
       x="0"
       y="0" />
  </defs>
  <g
     inkscape:groupmode="layer"
     id="layer2"
     inkscape:label="图层 2">
    <rect
       style="display:inline;fill:#534746;fill-opacity:1;stroke-width:6.4;stroke-linecap:round"
       id="rect11062"
       width="512"
       height="512"
       x="0"
       y="0"
       inkscape:label="background" />
    <path
       d="m 74.00138,369.50773 215.96081,0.64095 c 0,0 58.84037,5.61894 86.10411,-56.41304 14.20797,-32.32677 18.14708,-64.0757 34.63958,-81.1556 9.82456,-10.17447 37.60869,-8.41246 37.60869,-8.41246 0,0 0.49485,-32.16533 24.24771,-51.95937 L 511.79972,220.49615 512,512 H 139.49918 L 54.001375,369.50758 Z"
       style="display:inline;fill:#443736;fill-opacity:1;stroke:none;stroke-width:1px;stroke-linecap:butt;stroke-linejoin:miter;stroke-opacity:1"
       id="path31624"
       sodipodi:nodetypes="ccssccccccc"
       inkscape:label="shadow" />
  </g>
  <g
     inkscape:label="图层 1"
     inkscape:groupmode="layer"
     id="layer1">
    <path
       style="fill:#ffcc00;fill-opacity:1;stroke:none;stroke-width:1px;stroke-linecap:butt;stroke-linejoin:miter;stroke-opacity:1"
       d="M 368.77701,171.10727 H 147.7626 c 0,0 -61.934532,5.24869 -61.934532,61.58462 0,56.33593 61.934532,58.0855 61.934532,58.0855 h 133.92906 c 11.54712,0 34.2687,2.45197 24.78891,19.02521 15.47119,-3.46183 36.09588,-29.0852 38.63275,-51.1297 -10.67233,-7.1732 -27.99301,-8.48538 -43.03925,-8.48538 H 160.35946 c 0,0 -12.94677,-0.34991 -12.94677,-13.9965 0,-13.6466 12.94677,-14.34642 12.94677,-14.34642 h 175.1231 c 2.72168,-12.12385 16.84855,-42.68934 33.29445,-50.73733 z"
       id="path891"
       sodipodi:nodetypes="ccscsccscsccc"
       inkscape:label="part-s-top" />
    <path
       style="display:none;fill:#86c335;fill-opacity:1;stroke:none;stroke-width:1px;stroke-linecap:butt;stroke-linejoin:miter;stroke-opacity:1"
       d="m 74.001375,369.50773 c 10.39482,0 217.312875,0.69982 217.312875,0.69982 9.88658,0 79.93746,-11.34472 79.93746,-62.08204 0,-26.59336 -9.95493,-37.0307 -19.75249,-45.60356 -3.56262,24.22864 -23.88153,55.19871 -53.6241,55.19871 H 139.71461 c 0,0 -28.00758,1.46697 -35.70565,18.26277 -7.69808,16.79581 -11.450666,24.61698 -30.007585,33.5243 z"
       id="path895"
       sodipodi:nodetypes="ccscscsc"
       inkscape:label="part-s-base" />
    <path
       style="display:none;fill:#00e2ff;fill-opacity:1;stroke:none;stroke-width:1px;stroke-linecap:butt;stroke-linejoin:miter;stroke-opacity:1"
       d="m 353.55057,254.72464 c 4.31489,-18.99929 25.95987,-82.51871 64.8255,-82.88757 13.11473,-0.12447 32.41276,0 32.41276,0 0,0 -21.15489,30.74519 -21.15489,49.3614 -8.16504,0 -13.54569,0.46678 -17.44351,2.47426 -16.0758,8.27946 -23.25799,27.71167 -34.887,73.4854 -0.49485,-16.08266 -6.92792,-32.53647 -23.75286,-42.43349 z"
       id="path4510"
       sodipodi:nodetypes="csccscc"
       inkscape:label="part-s-right" />
    <path
       style="fill:#86c335;fill-opacity:1;stroke:none;stroke-width:1px;stroke-linecap:butt;stroke-linejoin:miter;stroke-opacity:1"
       d="m 54.001375,369.50773 235.960815,0.64095 c 0,0 58.84037,5.61894 86.10411,-56.41304 14.20797,-32.32677 18.14708,-64.0757 34.63958,-81.1556 9.82456,-10.17447 37.60869,-8.41246 37.60869,-8.41246 0,0 0.49485,-32.16533 24.24771,-51.95937 h -44.04176 c -51.87033,7.94136 -61.45789,51.90784 -76.0316,94.27255 -6.57645,19.3955 -24.42318,54.18182 -63.02158,54.1828 l -197.81196,0.005 c 0,0 -1.55537,36.1734 -37.654005,48.83902 z"
       id="path23141"
       sodipodi:nodetypes="ccssccccsccc"
       inkscape:label="long-s" />
  </g>
</svg>
